<svg xmlns="http://www.w3.org/2000/svg" xmlns:xlink="http://www.w3.org/1999/xlink" version="1.1" id="Capa_1" x="0px" y="0px" viewBox="0 0 512 512" style="enable-background:new 0 0 512 512;" xml:space="preserve" width="512px" height="512px">
<g>
	<g>
		<path d="M0,61v390h512V61H0z M192,421H30V91h162V421z M482,421H222V91h260V421z" fill="#4a80c2"/>
	</g>
</g>
<g>
	<g>
		<path d="M232,101v130h130V101H232z M332,201h-70v-70h70V201z" fill="#4a80c2"/>
	</g>
</g>
<g>
	<g>
		<path d="M372,101v220h100V101H372z M442,291h-40V131h40V291z" fill="#4a80c2"/>
	</g>
</g>
<g>
	<g>
		<path d="M232,331v80h240v-80H232z M442,381H262v-20h180V381z" fill="#4a80c2"/>
	</g>
</g>
<g>
	<g>
		<path d="M232,241v80h130v-80H232z M332,291h-70v-20h70V291z" fill="#4a80c2"/>
	</g>
</g>
<g>
	<g>
		<rect x="70" y="241" width="102" height="30" fill="#4a80c2"/>
	</g>
</g>
<g>
	<g>
		<rect x="90" y="181" width="62" height="30" fill="#4a80c2"/>
	</g>
</g>
<g>
	<g>
		<rect x="50" y="121" width="102" height="30" fill="#4a80c2"/>
	</g>
</g>
<g>
	<g>
		<rect x="70" y="361" width="82" height="30" fill="#4a80c2"/>
	</g>
</g>
<g>
	<g>
		<rect x="90" y="301" width="72" height="30" fill="#4a80c2"/>
	</g>
</g>
<g>
</g>
<g>
</g>
<g>
</g>
<g>
</g>
<g>
</g>
<g>
</g>
<g>
</g>
<g>
</g>
<g>
</g>
<g>
</g>
<g>
</g>
<g>
</g>
<g>
</g>
<g>
</g>
<g>
</g>
</svg>