<?xml version="1.0" encoding="utf-8"?>
<!-- Generator: Adobe Illustrator 19.0.0, SVG Export Plug-In . SVG Version: 6.00 Build 0)  -->
<svg version="1.1" id="Layer_2" xmlns="http://www.w3.org/2000/svg" xmlns:xlink="http://www.w3.org/1999/xlink" x="0px" y="0px"
	 viewBox="0 0 365.6 157.3" style="enable-background:new 0 0 365.6 157.3;" xml:space="preserve">
<style type="text/css">
	.st0{fill:url(#SVGID_1_);}
	.st1{fill:url(#SVGID_2_);}
	.st2{fill:url(#SVGID_3_);}
	.st3{fill:url(#SVGID_4_);}
	.st4{fill:url(#SVGID_5_);}
</style>
<linearGradient id="SVGID_1_" gradientUnits="userSpaceOnUse" x1="122.1667" y1="157.3333" x2="122.1667" y2="-5.485163e-009">
	<stop  offset="0" style="stop-color:#0061A3"/>
	<stop  offset="1" style="stop-color:#469AC3"/>
</linearGradient>
<polygon class="st0" points="0,86.3 28,86.3 61,128.3 244.3,0 58.7,157.3 "/>
<linearGradient id="SVGID_2_" gradientUnits="userSpaceOnUse" x1="295.6726" y1="152.5108" x2="295.6726" y2="91.61">
	<stop  offset="0" style="stop-color:#0061A3"/>
	<stop  offset="1" style="stop-color:#469AC3"/>
</linearGradient>
<path class="st1" d="M295.7,152.5c-17.3,0-31.4-13.7-31.4-30.5c0-16.8,14.1-30.5,31.4-30.5c17.3,0,31.4,13.7,31.4,30.5
	C327.1,138.9,313,152.5,295.7,152.5z M295.7,98.6c-13.5,0-24.4,10.5-24.4,23.5s11,23.5,24.4,23.5c13.5,0,24.4-10.5,24.4-23.5
	S309.1,98.6,295.7,98.6z"/>
<linearGradient id="SVGID_3_" gradientUnits="userSpaceOnUse" x1="163.4295" y1="152.5108" x2="163.4295" y2="91.61">
	<stop  offset="0" style="stop-color:#0061A3"/>
	<stop  offset="1" style="stop-color:#469AC3"/>
</linearGradient>
<path class="st2" d="M188.2,103.4l4.3-4.2l-4.9-5l-4.4,4.3c-5.4-4.3-12.3-6.8-19.8-6.8c-17.3,0-31.4,13.7-31.4,30.5
	c0,7.3,2.7,14.1,7.2,19.3l-4,3.9l4.9,5l4.2-4.1c5.3,4,11.9,6.3,19.2,6.3c17.3,0,31.4-13.7,31.4-30.5
	C194.9,115,192.4,108.5,188.2,103.4z M139,122.1c0-12.9,11-23.5,24.4-23.5c5.5,0,10.7,1.8,14.8,4.8l-34,33.1
	C140.9,132.5,139,127.5,139,122.1z M163.4,145.5c-5.2,0-10.1-1.6-14.1-4.3l33.8-32.9c2.9,3.9,4.7,8.6,4.7,13.8
	C187.9,135,176.9,145.5,163.4,145.5z"/>
<linearGradient id="SVGID_4_" gradientUnits="userSpaceOnUse" x1="350.7992" y1="153.4464" x2="350.7992" y2="72.171">
	<stop  offset="0" style="stop-color:#0061A3"/>
	<stop  offset="1" style="stop-color:#469AC3"/>
</linearGradient>
<polygon class="st3" points="365.6,93.8 354.3,93.8 354.3,72.2 347.3,72.2 347.3,93.8 336,93.8 336,100.8 347.3,100.8 347.3,153.4 
	354.3,153.4 354.3,100.8 365.6,100.8 "/>
<linearGradient id="SVGID_5_" gradientUnits="userSpaceOnUse" x1="228.4552" y1="153.4464" x2="228.4552" y2="73.5318">
	<stop  offset="0" style="stop-color:#0061A3"/>
	<stop  offset="1" style="stop-color:#469AC3"/>
</linearGradient>
<path class="st4" d="M238.5,109.5c4.4-3.7,7.2-9.3,7.2-15.5c0-11.3-9.2-20.5-20.5-20.5h-13.3h-7v7v26.9v7v32v7h7H229
	c12.7,0,23-10.3,23-23C252,121.1,246.5,113.1,238.5,109.5z M229,114.4l-0.2-0.3c0,0,0.1,0,0.1,0L229,114.4z M211.9,80.5h13.3v0
	c7.4,0,13.5,6,13.5,13.5c0,7.4-6,13.5-13.5,13.5l0,0h-13.3V80.5z M229,146.4L229,146.4l-17.1,0v-32H229l0,0c8.8,0,16,7.2,16,16
	S237.8,146.4,229,146.4z"/>
</svg>
